<svg width="80" height="80" viewBox="0 0 80 80" fill="none" xmlns="http://www.w3.org/2000/svg">
<rect width="80" height="80" rx="40" fill="#FFC76F"/>
<path fill-rule="evenodd" clip-rule="evenodd" d="M32 53.3333C34.9454 53.3333 37.3333 51.6702 37.3333 49.619V30.3809C37.3333 28.3297 34.9454 26.6666 32 26.6666C29.0546 26.6666 26.6667 28.3297 26.6667 30.3809V49.619C26.6667 51.6702 29.0546 53.3333 32 53.3333ZM48 53.3333C50.9454 53.3333 53.3333 51.6702 53.3333 49.619V30.3809C53.3333 28.3297 50.9454 26.6666 48 26.6666C45.0554 26.6666 42.6675 28.3297 42.6667 30.3809V49.619C42.6667 51.6702 45.0546 53.3333 48 53.3333Z" fill="white"/>
</svg>
