<svg width="33" height="32" viewBox="0 0 33 32" fill="none" xmlns="http://www.w3.org/2000/svg">
<path d="M29.098 22.0827L21.0975 17.6379C20.8942 17.5252 20.6683 17.4721 20.4413 17.4835C20.2143 17.495 19.9937 17.5707 19.8004 17.7034C19.6071 17.8362 19.4475 18.0216 19.3368 18.242C19.226 18.4625 19.1678 18.7108 19.1676 18.9632V21.716C18.0238 21.393 17.0096 20.6556 16.2851 19.6204C15.5607 18.5852 15.1674 17.3113 15.1674 16C15.1674 14.6888 15.5607 13.4149 16.2851 12.3797C17.0096 11.3445 18.0238 10.6071 19.1676 10.2841V13.0369C19.1681 13.2892 19.2265 13.5373 19.3373 13.7576C19.4481 13.9779 19.6076 14.1632 19.8008 14.2959C19.994 14.4286 20.2145 14.5043 20.4414 14.5159C20.6683 14.5275 20.8941 14.4746 21.0975 14.3622L29.098 9.91738C29.3191 9.79382 29.5048 9.60447 29.6346 9.37044C29.7644 9.13642 29.8332 8.86692 29.8332 8.59202C29.8332 8.31712 29.7644 8.04763 29.6346 7.8136C29.5048 7.57957 29.3191 7.39022 29.098 7.26666L21.0975 2.82189C20.8941 2.70951 20.6683 2.65664 20.4414 2.66826C20.2145 2.67989 19.994 2.75563 19.8008 2.88832C19.6076 3.02101 19.4481 3.20627 19.3373 3.42658C19.2265 3.64688 19.1681 3.89495 19.1676 4.14732V7.24385C18.0889 7.44701 17.0591 7.89364 16.1417 8.55617C15.2244 9.21871 14.4389 10.0831 13.8339 11.096C13.1054 9.87143 12.1152 8.86652 10.9517 8.17104C9.78829 7.47556 8.4879 7.1112 7.16678 7.1105H4.49993C4.14628 7.1105 3.80712 7.2666 3.55706 7.54445C3.30699 7.8223 3.1665 8.19915 3.1665 8.59209C3.1665 8.98504 3.30699 9.36189 3.55706 9.63974C3.80712 9.91759 4.14628 10.0737 4.49993 10.0737H7.16678C8.58137 10.0737 9.93802 10.6981 10.9383 11.8095C11.9385 12.9209 12.5005 14.4283 12.5005 16C12.5005 17.5718 11.9385 19.0792 10.9383 20.1906C9.93802 21.302 8.58137 21.9264 7.16678 21.9264H4.49993C4.14628 21.9264 3.80712 22.0825 3.55706 22.3604C3.30699 22.6382 3.1665 23.0151 3.1665 23.408C3.1665 23.8009 3.30699 24.1778 3.55706 24.4556C3.80712 24.7335 4.14628 24.8896 4.49993 24.8896H7.16678C8.4879 24.8889 9.78829 24.5245 10.9517 23.8291C12.1152 23.1336 13.1054 22.1287 13.8339 20.9041C14.4389 21.917 15.2244 22.7814 16.1417 23.4439C17.0591 24.1065 18.0889 24.5531 19.1676 24.7563V27.8528C19.1681 28.1052 19.2265 28.3532 19.3373 28.5735C19.4481 28.7938 19.6076 28.9791 19.8008 29.1118C19.994 29.2445 20.2145 29.3202 20.4414 29.3318C20.6683 29.3434 20.8941 29.2905 21.0975 29.1781L29.098 24.7333C29.319 24.6097 29.5048 24.4204 29.6345 24.1864C29.7643 23.9523 29.833 23.6829 29.833 23.408C29.833 23.1331 29.7643 22.8637 29.6345 22.6297C29.5048 22.3956 29.319 22.2063 29.098 22.0827Z" fill="white"/>
</svg>
