<svg width="80" height="80" viewBox="0 0 80 80" fill="none" xmlns="http://www.w3.org/2000/svg">
<rect width="80" height="80" rx="40" fill="#FFC76F"/>
<path d="M52.5983 38.8074L28.5965 26.8066C28.3931 26.7053 28.1673 26.6576 27.9404 26.668C27.7135 26.6784 27.4929 26.7466 27.2997 26.866C27.1065 26.9854 26.9469 27.1522 26.8361 27.3505C26.7253 27.5488 26.667 27.7721 26.6666 27.9993V52.0011C26.6671 52.2282 26.7255 52.4515 26.8363 52.6498C26.9471 52.848 27.1066 53.0148 27.2998 53.1342C27.493 53.2536 27.7135 53.3218 27.9404 53.3322C28.1673 53.3426 28.3931 53.295 28.5965 53.1938L52.5983 41.193C52.8193 41.0817 53.005 40.9113 53.1348 40.7007C53.2646 40.4901 53.3333 40.2476 53.3333 40.0002C53.3333 39.7528 53.2646 39.5103 53.1348 39.2997C53.005 39.0891 52.8193 38.9187 52.5983 38.8074Z" fill="white"/>
</svg>
