<svg width="208" height="17" viewBox="0 0 208 17" fill="none" xmlns="http://www.w3.org/2000/svg">
<rect x="0.5" y="5" width="207" height="6" rx="3" fill="#CDD9E3"/>
<path fill-rule="evenodd" clip-rule="evenodd" d="M132.5 17C136.918 17 140.5 13.4183 140.5 8.99999C140.5 8.79108 140.492 8.58403 140.476 8.37915C140.492 8.25496 140.5 8.12844 140.5 8C140.5 7.45851 140.357 6.95056 140.106 6.51202C139.059 3.31185 136.05 1 132.5 1C129.539 1 126.953 2.60879 125.57 5H3.5C1.84315 5 0.5 6.34315 0.5 8C0.5 9.65685 1.84315 11 3.5 11H124.752C125.64 14.4504 128.772 17 132.5 17Z" fill="#393939"/>
</svg>
